<?xml version="1.0" encoding="UTF-8" standalone="no"?>
<!DOCTYPE svg PUBLIC "-//W3C//DTD SVG 1.1//EN"
 "http://www.w3.org/Graphics/SVG/1.1/DTD/svg11.dtd">
<!-- Generated by graphviz version 2.38.0 (20140413.2041)
 -->
<!-- Title: output Pages: 1 -->
<svg width="641pt" height="715pt"
 viewBox="0.00 0.00 641.00 715.00" xmlns="http://www.w3.org/2000/svg" xmlns:xlink="http://www.w3.org/1999/xlink">
<g id="graph0" class="graph" transform="scale(1 1) rotate(0) translate(4 711)">
<title>output</title>
<polygon fill="white" stroke="none" points="-4,4 -4,-711 637,-711 637,4 -4,4"/>
<!-- Legend -->
<g id="node1" class="node"><title>Legend</title>
<polygon fill="#e0e0e0" stroke="none" points="8.5,-652.5 8.5,-675.5 209.5,-675.5 209.5,-652.5 8.5,-652.5"/>
<polygon fill="none" stroke="black" points="8.5,-652.5 8.5,-675.5 209.5,-675.5 209.5,-652.5 8.5,-652.5"/>
<text text-anchor="start" x="93" y="-660.3" font-family="Times,serif" font-size="14.00">Layer</text>
<polygon fill="#88ffff" stroke="none" points="8.5,-614.5 8.5,-652.5 89.5,-652.5 89.5,-614.5 8.5,-614.5"/>
<polygon fill="none" stroke="black" points="8.5,-614.5 8.5,-652.5 89.5,-652.5 89.5,-614.5 8.5,-614.5"/>
<text text-anchor="start" x="12.5" y="-637.3" font-family="Times,serif" font-size="14.00"> Complexity </text>
<text text-anchor="start" x="15" y="-622.3" font-family="Times,serif" font-size="14.00"> (MFLOPs) </text>
<polygon fill="#ff88ff" stroke="none" points="89.5,-614.5 89.5,-652.5 164.5,-652.5 164.5,-614.5 89.5,-614.5"/>
<polygon fill="none" stroke="black" points="89.5,-614.5 89.5,-652.5 164.5,-652.5 164.5,-614.5 89.5,-614.5"/>
<text text-anchor="start" x="93.5" y="-637.3" font-family="Times,serif" font-size="14.00"> Bandwidth </text>
<text text-anchor="start" x="103" y="-622.3" font-family="Times,serif" font-size="14.00"> (MB/s) </text>
<polygon fill="#ffff88" stroke="none" points="164.5,-614.5 164.5,-652.5 209.5,-652.5 209.5,-614.5 164.5,-614.5"/>
<polygon fill="none" stroke="black" points="164.5,-614.5 164.5,-652.5 209.5,-652.5 209.5,-614.5 164.5,-614.5"/>
<text text-anchor="start" x="168.5" y="-637.3" font-family="Times,serif" font-size="14.00"> Time </text>
<text text-anchor="start" x="172" y="-622.3" font-family="Times,serif" font-size="14.00"> (ms)</text>
</g>
<!-- Input -->
<g id="node2" class="node"><title>Input</title>
<ellipse fill="none" stroke="black" cx="324.5" cy="-645.5" rx="89.0842" ry="18"/>
<text text-anchor="middle" x="324.5" y="-641.8" font-family="Times,serif" font-size="14.00">input: (1, 384, 512, 6)</text>
</g>
<!-- conv1/Relu -->
<g id="node3" class="node"><title>conv1/Relu</title>
<polygon fill="#a3a3a3" stroke="none" points="233.5,-521 233.5,-544 416.5,-544 416.5,-521 233.5,-521"/>
<polygon fill="none" stroke="black" points="233.5,-521 233.5,-544 416.5,-544 416.5,-521 233.5,-521"/>
<text text-anchor="start" x="293.5" y="-528.8" font-family="Times,serif" font-size="14.00">conv1/Relu</text>
<polygon fill="#dddddd" stroke="none" points="233.5,-498 233.5,-521 416.5,-521 416.5,-498 233.5,-498"/>
<polygon fill="none" stroke="black" points="233.5,-498 233.5,-521 416.5,-521 416.5,-498 233.5,-498"/>
<text text-anchor="start" x="289" y="-505.8" font-family="Times,serif" font-size="14.00">(8, 192, 256)</text>
<polygon fill="#ffffff" stroke="none" points="233.5,-460 233.5,-498 309.5,-498 309.5,-460 233.5,-460"/>
<polygon fill="none" stroke="black" points="233.5,-460 233.5,-498 309.5,-498 309.5,-460 233.5,-460"/>
<text text-anchor="start" x="242" y="-482.8" font-family="Times,serif" font-size="14.00"> 117.9648 </text>
<text text-anchor="start" x="237.5" y="-467.8" font-family="Times,serif" font-size="14.00"> (MFLOPs) </text>
<polygon fill="#ffffff" stroke="none" points="309.5,-460 309.5,-498 369.5,-498 369.5,-460 309.5,-460"/>
<polygon fill="none" stroke="black" points="309.5,-460 309.5,-498 369.5,-498 369.5,-460 309.5,-460"/>
<text text-anchor="start" x="313.5" y="-482.8" font-family="Times,serif" font-size="14.00"> 4252.30 </text>
<text text-anchor="start" x="315.5" y="-467.8" font-family="Times,serif" font-size="14.00"> (MB/s) </text>
<polygon fill="#ffff00" stroke="none" points="369.5,-460 369.5,-498 416.5,-498 416.5,-460 369.5,-460"/>
<polygon fill="none" stroke="black" points="369.5,-460 369.5,-498 416.5,-498 416.5,-460 369.5,-460"/>
<text text-anchor="start" x="373.5" y="-482.8" font-family="Times,serif" font-size="14.00"> 13.23 </text>
<text text-anchor="start" x="378" y="-467.8" font-family="Times,serif" font-size="14.00"> (ms)</text>
</g>
<!-- Input&#45;&gt;conv1/Relu -->
<g id="edge1" class="edge"><title>Input&#45;&gt;conv1/Relu</title>
<path fill="none" stroke="black" d="M324.5,-627.432C324.5,-610.247 324.5,-582.812 324.5,-558.07"/>
<polygon fill="black" stroke="black" points="328,-558.031 324.5,-548.031 321,-558.031 328,-558.031"/>
</g>
<!-- conv2/Relu -->
<g id="node4" class="node"><title>conv2/Relu</title>
<polygon fill="#a3a3a3" stroke="none" points="236.5,-393 236.5,-416 412.5,-416 412.5,-393 236.5,-393"/>
<polygon fill="none" stroke="black" points="236.5,-393 236.5,-416 412.5,-416 412.5,-393 236.5,-393"/>
<text text-anchor="start" x="293" y="-400.8" font-family="Times,serif" font-size="14.00">conv2/Relu</text>
<polygon fill="#dddddd" stroke="none" points="236.5,-370 236.5,-393 412.5,-393 412.5,-370 236.5,-370"/>
<polygon fill="none" stroke="black" points="236.5,-370 236.5,-393 412.5,-393 412.5,-370 236.5,-370"/>
<text text-anchor="start" x="292" y="-377.8" font-family="Times,serif" font-size="14.00">(8, 96, 128)</text>
<polygon fill="#ffffff" stroke="none" points="236.5,-332 236.5,-370 312.5,-370 312.5,-332 236.5,-332"/>
<polygon fill="none" stroke="black" points="236.5,-332 236.5,-370 312.5,-370 312.5,-332 236.5,-332"/>
<text text-anchor="start" x="248.5" y="-354.8" font-family="Times,serif" font-size="14.00"> 39.3216 </text>
<text text-anchor="start" x="240.5" y="-339.8" font-family="Times,serif" font-size="14.00"> (MFLOPs) </text>
<polygon fill="#ffffff" stroke="none" points="312.5,-332 312.5,-370 372.5,-370 372.5,-332 312.5,-332"/>
<polygon fill="none" stroke="black" points="312.5,-332 312.5,-370 372.5,-370 372.5,-332 312.5,-332"/>
<text text-anchor="start" x="316.5" y="-354.8" font-family="Times,serif" font-size="14.00"> 4740.38 </text>
<text text-anchor="start" x="318.5" y="-339.8" font-family="Times,serif" font-size="14.00"> (MB/s) </text>
<polygon fill="#ffff93" stroke="none" points="372.5,-332 372.5,-370 412.5,-370 412.5,-332 372.5,-332"/>
<polygon fill="none" stroke="black" points="372.5,-332 372.5,-370 412.5,-370 412.5,-332 372.5,-332"/>
<text text-anchor="start" x="376.5" y="-354.8" font-family="Times,serif" font-size="14.00"> 3.96 </text>
<text text-anchor="start" x="377.5" y="-339.8" font-family="Times,serif" font-size="14.00"> (ms)</text>
</g>
<!-- conv1/Relu&#45;&gt;conv2/Relu -->
<g id="edge2" class="edge"><title>conv1/Relu&#45;&gt;conv2/Relu</title>
<path fill="none" stroke="black" d="M324.5,-455.867C324.5,-447.634 324.5,-438.957 324.5,-430.465"/>
<polygon fill="black" stroke="black" points="328,-430.241 324.5,-420.241 321,-430.241 328,-430.241"/>
</g>
<!-- conv3/Relu -->
<g id="node5" class="node"><title>conv3/Relu</title>
<polygon fill="#a3a3a3" stroke="none" points="236.5,-265 236.5,-288 412.5,-288 412.5,-265 236.5,-265"/>
<polygon fill="none" stroke="black" points="236.5,-265 236.5,-288 412.5,-288 412.5,-265 236.5,-265"/>
<text text-anchor="start" x="293" y="-272.8" font-family="Times,serif" font-size="14.00">conv3/Relu</text>
<polygon fill="#dddddd" stroke="none" points="236.5,-242 236.5,-265 412.5,-265 412.5,-242 236.5,-242"/>
<polygon fill="none" stroke="black" points="236.5,-242 236.5,-265 412.5,-265 412.5,-242 236.5,-242"/>
<text text-anchor="start" x="295.5" y="-249.8" font-family="Times,serif" font-size="14.00">(8, 48, 64)</text>
<polygon fill="#ffffff" stroke="none" points="236.5,-204 236.5,-242 312.5,-242 312.5,-204 236.5,-204"/>
<polygon fill="none" stroke="black" points="236.5,-204 236.5,-242 312.5,-242 312.5,-204 236.5,-204"/>
<text text-anchor="start" x="251.5" y="-226.8" font-family="Times,serif" font-size="14.00"> 9.8304 </text>
<text text-anchor="start" x="240.5" y="-211.8" font-family="Times,serif" font-size="14.00"> (MFLOPs) </text>
<polygon fill="#ffffff" stroke="none" points="312.5,-204 312.5,-242 372.5,-242 372.5,-204 312.5,-204"/>
<polygon fill="none" stroke="black" points="312.5,-204 312.5,-242 372.5,-242 372.5,-204 312.5,-204"/>
<text text-anchor="start" x="316.5" y="-226.8" font-family="Times,serif" font-size="14.00"> 4240.67 </text>
<text text-anchor="start" x="318.5" y="-211.8" font-family="Times,serif" font-size="14.00"> (MB/s) </text>
<polygon fill="#ffffc1" stroke="none" points="372.5,-204 372.5,-242 412.5,-242 412.5,-204 372.5,-204"/>
<polygon fill="none" stroke="black" points="372.5,-204 372.5,-242 412.5,-242 412.5,-204 372.5,-204"/>
<text text-anchor="start" x="376.5" y="-226.8" font-family="Times,serif" font-size="14.00"> 1.11 </text>
<text text-anchor="start" x="377.5" y="-211.8" font-family="Times,serif" font-size="14.00"> (ms)</text>
</g>
<!-- conv2/Relu&#45;&gt;conv3/Relu -->
<g id="edge3" class="edge"><title>conv2/Relu&#45;&gt;conv3/Relu</title>
<path fill="none" stroke="black" d="M324.5,-327.867C324.5,-319.634 324.5,-310.957 324.5,-302.465"/>
<polygon fill="black" stroke="black" points="328,-302.241 324.5,-292.241 321,-302.241 328,-302.241"/>
</g>
<!-- conv4/Relu -->
<g id="node6" class="node"><title>conv4/Relu</title>
<polygon fill="#a3a3a3" stroke="none" points="236.5,-137 236.5,-160 412.5,-160 412.5,-137 236.5,-137"/>
<polygon fill="none" stroke="black" points="236.5,-137 236.5,-160 412.5,-160 412.5,-137 236.5,-137"/>
<text text-anchor="start" x="293" y="-144.8" font-family="Times,serif" font-size="14.00">conv4/Relu</text>
<polygon fill="#dddddd" stroke="none" points="236.5,-114 236.5,-137 412.5,-137 412.5,-114 236.5,-114"/>
<polygon fill="none" stroke="black" points="236.5,-114 236.5,-137 412.5,-137 412.5,-114 236.5,-114"/>
<text text-anchor="start" x="295.5" y="-121.8" font-family="Times,serif" font-size="14.00">(8, 24, 32)</text>
<polygon fill="#ffffff" stroke="none" points="236.5,-76 236.5,-114 312.5,-114 312.5,-76 236.5,-76"/>
<polygon fill="none" stroke="black" points="236.5,-76 236.5,-114 312.5,-114 312.5,-76 236.5,-76"/>
<text text-anchor="start" x="251.5" y="-98.8" font-family="Times,serif" font-size="14.00"> 2.4576 </text>
<text text-anchor="start" x="240.5" y="-83.8" font-family="Times,serif" font-size="14.00"> (MFLOPs) </text>
<polygon fill="#ffffff" stroke="none" points="312.5,-76 312.5,-114 372.5,-114 372.5,-76 312.5,-76"/>
<polygon fill="none" stroke="black" points="312.5,-76 312.5,-114 372.5,-114 372.5,-76 312.5,-76"/>
<text text-anchor="start" x="316.5" y="-98.8" font-family="Times,serif" font-size="14.00"> 2759.55 </text>
<text text-anchor="start" x="318.5" y="-83.8" font-family="Times,serif" font-size="14.00"> (MB/s) </text>
<polygon fill="#ffffcb" stroke="none" points="372.5,-76 372.5,-114 412.5,-114 412.5,-76 372.5,-76"/>
<polygon fill="none" stroke="black" points="372.5,-76 372.5,-114 412.5,-114 412.5,-76 372.5,-76"/>
<text text-anchor="start" x="376.5" y="-98.8" font-family="Times,serif" font-size="14.00"> 0.43 </text>
<text text-anchor="start" x="377.5" y="-83.8" font-family="Times,serif" font-size="14.00"> (ms)</text>
</g>
<!-- conv3/Relu&#45;&gt;conv4/Relu -->
<g id="edge4" class="edge"><title>conv3/Relu&#45;&gt;conv4/Relu</title>
<path fill="none" stroke="black" d="M324.5,-199.867C324.5,-191.634 324.5,-182.957 324.5,-174.465"/>
<polygon fill="black" stroke="black" points="328,-174.241 324.5,-164.241 321,-174.241 328,-174.241"/>
</g>
<!-- Output -->
<g id="node7" class="node"><title>Output</title>
<ellipse fill="none" stroke="black" cx="324.5" cy="-18" rx="75.2868" ry="18"/>
<text text-anchor="middle" x="324.5" y="-14.3" font-family="Times,serif" font-size="14.00">output: [32, 24, 8]</text>
</g>
<!-- conv4/Relu&#45;&gt;Output -->
<g id="edge5" class="edge"><title>conv4/Relu&#45;&gt;Output</title>
<path fill="none" stroke="black" d="M324.5,-71.7292C324.5,-63.0404 324.5,-54.1943 324.5,-46.2922"/>
<polygon fill="black" stroke="black" points="328,-46.2052 324.5,-36.2053 321,-46.2053 328,-46.2052"/>
</g>
<!-- Summary -->
<g id="node8" class="node"><title>Summary</title>
<polygon fill="#c60000" stroke="none" points="440.5,-679.5 440.5,-702.5 625.5,-702.5 625.5,-679.5 440.5,-679.5"/>
<polygon fill="none" stroke="black" points="440.5,-679.5 440.5,-702.5 625.5,-702.5 625.5,-679.5 440.5,-679.5"/>
<text text-anchor="start" x="505.5" y="-687.3" font-family="Times,serif" font-size="14.00">Summary</text>
<polygon fill="#e2e2e2" stroke="none" points="440.5,-656.5 440.5,-679.5 625.5,-679.5 625.5,-656.5 440.5,-656.5"/>
<polygon fill="none" stroke="black" points="440.5,-656.5 440.5,-679.5 625.5,-679.5 625.5,-656.5 440.5,-656.5"/>
<text text-anchor="start" x="480" y="-664.3" font-family="Times,serif" font-size="14.00">12 SHV Processors</text>
<polygon fill="#dadada" stroke="none" points="440.5,-633.5 440.5,-656.5 625.5,-656.5 625.5,-633.5 440.5,-633.5"/>
<polygon fill="none" stroke="black" points="440.5,-633.5 440.5,-656.5 625.5,-656.5 625.5,-633.5 440.5,-633.5"/>
<text text-anchor="start" x="465.5" y="-641.3" font-family="Times,serif" font-size="14.00">Inference time 18.72 ms</text>
<polygon fill="#e2e2e2" stroke="none" points="440.5,-610.5 440.5,-633.5 625.5,-633.5 625.5,-610.5 440.5,-610.5"/>
<polygon fill="none" stroke="black" points="440.5,-610.5 440.5,-633.5 625.5,-633.5 625.5,-610.5 440.5,-610.5"/>
<text text-anchor="start" x="456" y="-618.3" font-family="Times,serif" font-size="14.00">Bandwidth 4320.81 MB/sec</text>
<polygon fill="#dadada" stroke="none" points="440.5,-587.5 440.5,-610.5 625.5,-610.5 625.5,-587.5 440.5,-587.5"/>
<polygon fill="none" stroke="black" points="440.5,-587.5 440.5,-610.5 625.5,-610.5 625.5,-587.5 440.5,-587.5"/>
<text text-anchor="start" x="444.5" y="-595.3" font-family="Times,serif" font-size="14.00">This network is Compute bound</text>
</g>
</g>
</svg>
